<svg xmlns="http://www.w3.org/2000/svg" width="32" height="24" viewBox="0 0 32 24">
  <defs>
    <style>
      .cls-1 {
        fill: #7c7c7c;
      }
    </style>
  </defs>
  <g id="Group" transform="translate(0 138)">
    <g id="audience">
      <path id="Combined-Shape" class="cls-1" d="M20,16.727A17.069,17.069,0,0,1,25,16a16.147,16.147,0,0,1,7,1.511V24H0V16.137A23.24,23.24,0,0,1,10,14a23.257,23.257,0,0,1,10,2.137Zm-2,.784v-.067A21.938,21.938,0,0,0,10,16a21.925,21.925,0,0,0-8,1.444V22H18ZM10,10a5,5,0,1,1,5-5A5.007,5.007,0,0,1,10,10Zm0-2A3,3,0,1,0,7,5,3,3,0,0,0,10,8Zm15,6a4,4,0,1,1,4-4A4,4,0,0,1,25,14Zm0-2a2,2,0,1,0-2-2A2,2,0,0,0,25,12ZM20,22H30V18.835a15.388,15.388,0,0,0-10,0Z" transform="translate(0 -138)"/>
    </g>
  </g>
</svg>
