<svg xmlns="http://www.w3.org/2000/svg" width="32" height="31.956" viewBox="0 0 32 31.956">
  <defs>
    <style>
      .cls-1 {
        fill: #7c7c7c;
      }
    </style>
  </defs>
  <path id="PwC_Funct_Icons_Avatar_Outline_Black_RGB" class="cls-1" d="M32,13.5A16,16,0,0,0,20.533,40.656l.667.711.044-.044a16.06,16.06,0,0,0,21.511,0l.044.044.578-.622A16,16,0,0,0,32,13.5Zm0,30a13.876,13.876,0,0,1-9.067-3.333A18.145,18.145,0,0,1,32,37.9a17.7,17.7,0,0,1,9.067,2.267A13.876,13.876,0,0,1,32,43.5Zm10.533-4.8A19.764,19.764,0,0,0,32,35.9a19.764,19.764,0,0,0-10.533,2.8A13.994,13.994,0,1,1,46,29.5,13.8,13.8,0,0,1,42.533,38.7ZM32,22.3a5.267,5.267,0,1,0,5.289,5.244A5.273,5.273,0,0,0,32,22.3Zm0,8.533a3.289,3.289,0,1,1,3.289-3.289A3.281,3.281,0,0,1,32,30.833Z" transform="translate(-16 -13.5)"/>
</svg>
