<svg xmlns="http://www.w3.org/2000/svg" width="32" height="31.85" viewBox="0 0 32 31.85">
  <defs>
    <style>
      .cls-1 {
        fill: #7c7c7c;
      }
    </style>
  </defs>
  <path id="Union_1" data-name="Union 1" class="cls-1" d="M23174.176,24416.672a10.651,10.651,0,0,1-3.178-7.664,10.8,10.8,0,0,1,3.178-7.7,11.634,11.634,0,0,1,7.252-3.141V24388H23203v13.791l-.037.039-6.992,7.738h-3.289a11.31,11.31,0,0,1-3.139,7.18,10.761,10.761,0,0,1-7.664,3.1A10.959,10.959,0,0,1,23174.176,24416.672Zm1.234-1.2a8.984,8.984,0,0,0,6.467,2.691,9.165,9.165,0,0,0,6.467-15.625,8.978,8.978,0,0,0-6.467-2.691,9.165,9.165,0,0,0-6.467,15.625Zm14.316-14.242a11.266,11.266,0,0,1,2.99,6.691h1.869v-7.215h6.766v-11.066h-18.24v8.523A11.233,11.233,0,0,1,23189.727,24401.234Zm6.506,6.02,4.3-5.309h-4.3Zm-15.215,7.85v-5.084h-5.533v-1.645h5.533v-5.531h1.646v5.531h5.082v1.645h-5.082v5.084Z" transform="translate(-23170.998 -24388.002)"/>
</svg>
