<svg xmlns="http://www.w3.org/2000/svg" width="32" height="32.594" viewBox="0 0 32 32.594">
  <defs>
    <style>
      .cls-1 {
        fill: #7c7c7c;
      }
    </style>
  </defs>
  <path id="Union_3" data-name="Union 3" class="cls-1" d="M23173,24420.594a2.019,2.019,0,0,1-2-2.039v-28.514a2.021,2.021,0,0,1,2-2.041h28a2.021,2.021,0,0,1,2,2.035v28.52a2.017,2.017,0,0,1-2,2.039Zm-.006-2.039h28v-28.514h-28Zm20.893-4.383a4.928,4.928,0,0,1-.176-9.852v0a4.928,4.928,0,0,1,.35,9.848Zm-2.191-6.881a2.893,2.893,0,1,0,3.135-.764,2.855,2.855,0,0,0-1-.178A2.9,2.9,0,0,0,23191.7,24407.291Zm-16.652-3.365a6.67,6.67,0,1,1,11.586,4.424,6.437,6.437,0,0,1-4.564,2.123h-.24c-.039,0-.078,0-.117,0A6.667,6.667,0,0,1,23175.043,24403.926Zm4.77-4.244a4.6,4.6,0,0,0,2.16,8.77,4.506,4.506,0,0,0,3.172-1.479,4.6,4.6,0,0,0-5.332-7.291Zm13.164,2.752a4.024,4.024,0,0,1-2.869-6.736,3.892,3.892,0,0,1,2.732-1.27,3.8,3.8,0,0,1,2.818,1.07,4.064,4.064,0,0,1,.2,5.662,3.863,3.863,0,0,1-2.738,1.273Zm-1.312-2.578a1.912,1.912,0,0,0,2.734-.105,2,2,0,0,0-.105-2.785,1.849,1.849,0,0,0-1.4-.49,1.939,1.939,0,0,0-1.332.627v-.035A2,2,0,0,0,23191.664,24399.855Z" transform="translate(-23170.998 -24388)"/>
</svg>
