<svg xmlns="http://www.w3.org/2000/svg" width="27.773" height="32" viewBox="0 0 27.773 32">
  <defs>
    <style>
      .cls-1 {
        fill: #7c7c7c;
      }
    </style>
  </defs>
  <path id="Union_2" data-name="Union 2" class="cls-1" d="M23173.084,24420a2.125,2.125,0,0,1-2.082-2.15v-24a2.121,2.121,0,0,1,2.082-2.16H23175v-1.527a2.125,2.125,0,0,1,2.084-2.162h19.6a2.127,2.127,0,0,1,2.086,2.152v23.551a2.115,2.115,0,0,1-2.086,2.156h-1.912v1.979a2.127,2.127,0,0,1-2.086,2.162Zm-.082-26.156v23.994a.13.13,0,0,0,.082.135h19.607a.13.13,0,0,0,.086-.135v-1.979h-15.691a2.115,2.115,0,0,1-2.084-2.156v-20h-1.918C23173.061,24393.705,23173,24393.75,23173,24393.842Zm4-3.691v23.551c0,.092.057.135.084.135h19.6c.029,0,.088-.043.088-.135v-23.551c0-.09-.059-.137-.088-.137h-19.6C23177.059,24390.014,23177,24390.061,23177,24390.15Zm3,18.744v-2.021h8v2.021Zm12.775-6.064H23180v-2.025h13.775v2.025Zm0-6.066H23180v-2.023h13.775v2.023Z" transform="translate(-23171.002 -24387.998)"/>
</svg>
